<svg width="19" height="18" viewBox="0 0 19 18" fill="none" xmlns="http://www.w3.org/2000/svg">
<path d="M9.49998 17.1769L8.39615 16.1846C6.73847 14.6807 5.36763 13.3884 4.28365 12.3077C3.19968 11.2269 2.34072 10.265 1.70675 9.42208C1.07277 8.57913 0.629817 7.81022 0.3779 7.11535C0.125967 6.42048 0 5.71536 0 4.99998C0 3.58076 0.478525 2.39263 1.43558 1.43558C2.39263 0.478526 3.58076 0 4.99998 0C5.87306 0 6.69806 0.204176 7.47498 0.612526C8.25189 1.02086 8.92689 1.60643 9.49998 2.36925C10.0731 1.60643 10.7481 1.02086 11.525 0.612526C12.3019 0.204176 13.1269 0 14 0C15.4192 0 16.6073 0.478526 17.5644 1.43558C18.5214 2.39263 19 3.58076 19 4.99998C19 5.71536 18.874 6.42048 18.6221 7.11535C18.3701 7.81022 17.9272 8.57913 17.2932 9.42208C16.6592 10.265 15.8019 11.2269 14.7211 12.3077C13.6403 13.3884 12.2679 14.6807 10.6038 16.1846L9.49998 17.1769ZM9.49998 15.15C11.1 13.7102 12.4166 12.4763 13.45 11.4481C14.4833 10.4199 15.3 9.52658 15.9 8.76825C16.5 8.00992 16.9166 7.33652 17.15 6.74805C17.3833 6.15958 17.5 5.57689 17.5 4.99998C17.5 3.99998 17.1666 3.16664 16.5 2.49998C15.8333 1.83331 15 1.49998 14 1.49998C13.2102 1.49998 12.4804 1.72402 11.8106 2.1721C11.1407 2.62017 10.6102 3.24357 10.2192 4.0423H8.78075C8.38332 3.23717 7.85127 2.61216 7.1846 2.16728C6.51793 1.72241 5.78973 1.49998 4.99998 1.49998C4.00639 1.49998 3.17466 1.83331 2.50478 2.49998C1.83491 3.16664 1.49998 3.99998 1.49998 4.99998C1.49998 5.57689 1.61664 6.15958 1.84998 6.74805C2.08331 7.33652 2.49998 8.00992 3.09998 8.76825C3.69998 9.52658 4.51664 10.4183 5.54998 11.4433C6.58331 12.4683 7.89997 13.7038 9.49998 15.15Z" fill="#212121"/>
</svg>
