<svg width="11" height="11" viewBox="0 0 11 11" fill="none" xmlns="http://www.w3.org/2000/svg">
<path d="M5.33333 5.33333C4.6 5.33333 3.97222 5.07222 3.45 4.55C2.92778 4.02778 2.66667 3.4 2.66667 2.66667C2.66667 1.93333 2.92778 1.30556 3.45 0.783333C3.97222 0.261111 4.6 0 5.33333 0C6.06667 0 6.69444 0.261111 7.21667 0.783333C7.73889 1.30556 8 1.93333 8 2.66667C8 3.4 7.73889 4.02778 7.21667 4.55C6.69444 5.07222 6.06667 5.33333 5.33333 5.33333ZM0 10.6667V8.8C0 8.42222 0.0972222 8.075 0.291667 7.75833C0.486111 7.44167 0.744444 7.2 1.06667 7.03333C1.75556 6.68889 2.45556 6.43056 3.16667 6.25833C3.87778 6.08611 4.6 6 5.33333 6C6.06667 6 6.78889 6.08611 7.5 6.25833C8.21111 6.43056 8.91111 6.68889 9.6 7.03333C9.92222 7.2 10.1806 7.44167 10.375 7.75833C10.5694 8.075 10.6667 8.42222 10.6667 8.8V10.6667H0Z" fill="#212121" fill-opacity="0.65"/>
</svg>
