<svg width="12" height="15" viewBox="0 0 12 15" fill="none" xmlns="http://www.w3.org/2000/svg">
<path d="M5.46 0.115L0.793333 2.18833C0.313333 2.40167 0 2.88167 0 3.40833V6.54167C0 10.2417 2.56 13.7017 6 14.5417C9.44 13.7017 12 10.2417 12 6.54167V3.40833C12 2.88167 11.6867 2.40167 11.2067 2.18833L6.54 0.115C6.2 -0.0383333 5.8 -0.0383333 5.46 0.115ZM4.19333 10.0683L2.46667 8.34167C2.20667 8.08167 2.20667 7.66167 2.46667 7.40167C2.72667 7.14167 3.14667 7.14167 3.40667 7.40167L4.66667 8.655L8.58667 4.735C8.84667 4.475 9.26667 4.475 9.52667 4.735C9.78667 4.995 9.78667 5.415 9.52667 5.675L5.13333 10.0683C4.88 10.3283 4.45333 10.3283 4.19333 10.0683Z" fill="#029C75"/>
</svg>
